<?xml version="1.0" encoding="utf-8"?>
<!-- Generator: Adobe Illustrator 16.0.0, SVG Export Plug-In . SVG Version: 6.00 Build 0)  -->
<!DOCTYPE svg PUBLIC "-//W3C//DTD SVG 1.1 Tiny//EN" "http://www.w3.org/Graphics/SVG/1.1/DTD/svg11-tiny.dtd">
<svg version="1.1" baseProfile="tiny" id="Layer_1" xmlns="http://www.w3.org/2000/svg" xmlns:xlink="http://www.w3.org/1999/xlink"
	 x="0px" y="0px" width="688.542px" height="601.793px" viewBox="0 0 688.542 601.793" xml:space="preserve">
<g>
	<g>
		<path fill="#000100" d="M113.184,512.461c0.901,1.357,4.109,2.031,9.624,2.031c1.104,0,1.901,0.326,2.411,0.98
			c0.503,0.646,0.745,1.371,0.745,2.168c0,0.811-0.268,1.563-0.824,2.262c-0.555,0.699-1.424,1.059-2.633,1.059H84.75
			c-2.202,0-3.28-1.086-3.228-3.242c0.046-2.156,1.13-3.227,3.228-3.227c5.115,0,8.251-0.557,9.401-1.66
			c1.15-1.098,1.731-4.215,1.731-9.33v-72.939l-1.502-0.307l-30.682,90.396c-0.405,1.209-1.554,1.811-3.462,1.811
			c-1.901,0-3.104-0.602-3.606-1.811l-31.29-90.09l-1.503,0.299v72.641c0,4.117,0.398,6.979,1.209,8.586
			c0.797,1.6,3.907,2.404,9.317,2.404c1.11,0,1.908,0.326,2.411,0.98c0.503,0.646,0.758,1.371,0.758,2.168
			c-0.104,0.811-0.431,1.563-0.986,2.262c-0.549,0.699-1.379,1.059-2.477,1.059H3.236c-2.208,0-3.286-1.086-3.234-3.242
			c0.046-2.156,1.125-3.227,3.234-3.227c5.312,0,8.396-0.674,9.251-2.031c0.843-1.354,1.274-4.332,1.274-8.959v-70.537
			c0-4.611-0.431-7.486-1.274-8.648c-0.856-1.15-3.94-1.732-9.251-1.732c-2.11,0-3.188-1.053-3.234-3.156
			c-0.052-2.104,1.026-3.154,3.234-3.154h30.976c0.607,0,1.235,0.201,1.882,0.602c0.653,0.396,1.13,1.102,1.438,2.104l26.167,73.398
			l24.665-73.701c0.202-0.594,0.548-1.148,1.058-1.652c0.496-0.502,1.15-0.75,1.953-0.75h31.133c2.404,0,3.606,1.051,3.606,3.154
			s-1.098,3.156-3.306,3.156c-5.514,0-8.722,0.607-9.624,1.809c-0.902,1.203-1.359,4.262-1.359,9.174v69.936
			C111.824,508.129,112.282,511.107,113.184,512.461z"/>
		<path fill="#000100" d="M295.326,419.428c0,2.104-1.104,3.156-3.312,3.156c-5.515,0-8.625,0.889-9.324,2.633
			c-0.699,1.758-1.052,4.541-1.052,8.35v51.891c0,11.943-3.685,21.189-11.055,27.754c-7.37,6.566-17.026,9.846-28.957,9.846
			c-12.133,0-21.887-2.848-29.257-8.564s-11.048-14.342-11.048-25.867v-54.908c0-5.012-0.529-8.121-1.581-9.324
			c-1.052-1.201-4.188-1.809-9.396-1.809c-2.109,0-3.194-1.053-3.24-3.156c-0.053-2.104,1.032-3.154,3.24-3.154h37.751
			c2.3,0,3.456,1.051,3.456,3.154s-1.058,3.156-3.162,3.156c-5.214,0-8.344,0.607-9.396,1.809c-1.059,1.203-1.581,4.313-1.581,9.324
			v53.1c0,7.82,2.124,14.137,6.39,18.953c4.267,4.803,11.159,7.213,20.686,7.213c8.219,0,14.733-2.725,19.555-8.193
			c4.809-5.463,7.22-12.061,7.22-19.777v-51.445c0-5.01-0.451-8.088-1.359-9.25c-0.901-1.15-4.005-1.732-9.323-1.732
			c-2.104,0-3.189-1.053-3.234-3.156c-0.052-2.104,1.026-3.154,3.234-3.154h31.132C294.124,416.273,295.326,417.324,295.326,419.428
			z"/>
		<path fill="#000100" d="M425.658,472.592c4.051,4.973,6.083,11.617,6.083,19.936c0,9.832-3.358,17.371-10.075,22.645
			c-6.715,5.26-15.536,7.885-26.467,7.885c-4.516,0-9.428-1.051-14.74-3.154c-5.318-2.104-10.035-4.914-14.139-8.416l-4.063,8.865
			c-1,1.301-2.334,1.961-3.986,1.961c-1.653,0-2.528-0.607-2.633-1.803l-0.902-37.164c-0.104-1.697,0.98-2.574,3.229-2.627
			c2.26-0.043,3.586,0.732,3.991,2.334c2.307,10.33,6.736,18.256,13.315,23.764c6.561,5.512,13.204,8.277,19.928,8.277
			c8.722,0,14.831-2.006,18.346-6.018s5.266-8.018,5.266-12.035c0-6.514-1.828-11.18-5.486-13.988
			c-3.66-2.803-10.363-5.611-20.079-8.43c-4.724-1.396-9.558-2.848-14.517-4.357c-4.967-1.496-9.252-3.658-12.865-6.469
			c-3.104-2.396-5.391-5.566-6.84-9.467c-1.451-3.914-2.184-7.723-2.184-11.432c0-8.326,2.856-15.244,8.572-20.758
			c5.717-5.516,13.439-8.279,23.162-8.279c4.822,0,9.428,0.863,13.844,2.563c4.411,1.705,8.468,4.455,12.179,8.271l4.665-8.123
			c0.805-1.703,1.954-2.5,3.457-2.41c1.509,0.105,2.306,0.863,2.41,2.262l1.504,33.992c0.098,1.707-0.902,2.529-3.006,2.477
			c-2.111-0.051-3.41-0.77-3.914-2.174c-2.803-9.828-6.918-17.055-12.335-21.66c-5.409-4.613-11.584-6.918-18.504-6.918
			c-5.813,0-10.427,1.404-13.831,4.207c-3.41,2.816-5.116,6.527-5.116,11.133c0,5.418,1.281,9.402,3.835,11.951
			c2.555,2.566,5.992,4.441,10.305,5.645l24.514,7.07C415.897,464.15,421.594,467.633,425.658,472.592z"/>
		<path fill="#000100" d="M498.527,520.961c-2.306,0-3.43-1.033-3.384-3.092c0.052-2.051,1.176-3.076,3.384-3.076
			c5.416,0,8.697-0.582,9.86-1.73c1.149-1.15,1.724-4.34,1.724-9.561v-69.785c0-5.311-0.574-8.473-1.724-9.48
			c-1.163-0.992-4.444-1.496-9.86-1.496c-2.104,0-3.182-1.078-3.227-3.232c-0.053-2.156,1.019-3.234,3.227-3.234h39.261
			c1.104,0,1.901,0.326,2.404,0.973c0.503,0.654,0.758,1.379,0.758,2.182c0,0.805-0.255,1.557-0.758,2.262
			c-0.503,0.699-1.3,1.051-2.404,1.051c-5.521,0-8.801,0.504-9.853,1.496c-1.052,1.008-1.574,4.17-1.574,9.48v69.785
			c0,4.926,0.444,8.029,1.353,9.33c0.895,1.307,4.214,1.961,9.924,1.961c2.307,0,3.463,1.025,3.463,3.076
			c0,2.059-1.11,3.092-3.313,3.092H498.527z"/>
		<path fill="#000100" d="M685.035,485.012c2.605,0,3.757,0.953,3.463,2.855c-1.614,10.525-5.998,19.047-13.165,25.572
			c-7.168,6.508-16.472,9.775-27.905,9.775c-14.236,0-25.735-5.293-34.511-15.869c-8.78-10.58-13.165-22.836-13.165-36.771
			c0-15.047,4.561-28.213,13.688-39.482c9.121-11.285,20.554-16.93,34.294-16.93c4.711,0,9.298,0.811,13.767,2.41
			c4.456,1.607,8.441,4.307,11.956,8.123l4.509-8.123c0.804-1.502,2.104-2.227,3.907-2.182c1.81,0.053,2.764,0.727,2.861,2.033
			l1.961,38.502c0.091,1.6-1.06,2.436-3.471,2.482c-2.396,0.053-3.802-0.68-4.207-2.182c-2.509-10.729-6.239-18.922-11.205-24.594
			c-4.959-5.664-11.754-8.441-20.385-8.35c-9.121,0.203-16.216,4.965-21.279,14.297c-5.064,9.322-7.599,20.705-7.599,34.143
			c0,10.926,2.534,21.053,7.599,30.383c5.063,9.322,12.812,13.988,23.239,13.988c7.317,0,13.838-2.535,19.549-7.6
			c5.717-5.057,9.578-11.955,11.584-20.678C680.925,485.613,682.427,485.012,685.035,485.012z"/>
	</g>
	<g>
		<path fill="#000100" d="M158.932,588.707c0.464,1.078,0.699,2.326,0.699,3.723c-0.039,2.797-1.137,5.064-3.28,6.783
			s-4.789,2.58-7.925,2.58c-1.744,0-3.397-0.273-4.965-0.828c-1.574-0.557-3.044-1.359-4.397-2.418l-1.66,2.352
			c-0.34,0.426-0.895,0.686-1.686,0.766c-0.791,0.09-1.176-0.125-1.176-0.635v-10.893c0-0.547,0.483-0.822,1.464-0.822
			c0.973,0,1.568,0.287,1.784,0.889c0.973,2.502,2.273,4.496,3.887,5.953c1.607,1.469,3.959,2.201,7.063,2.201
			c1.405,0,2.522-0.373,3.378-1.119c0.843-0.744,1.267-1.684,1.267-2.826c0-2.295-0.974-3.699-2.92-4.209
			c-1.954-0.51-4.488-1.248-7.579-2.229c-2.084-0.672-3.914-1.719-5.481-3.123c-1.568-1.398-2.359-3.352-2.359-5.859
			c0-2.627,0.974-4.686,2.901-6.168c1.934-1.484,4.253-2.236,6.978-2.236c1.397,0,2.835,0.217,4.325,0.643
			c1.49,0.416,2.764,1.078,3.823,1.973l1.149-2.039c0.379-0.463,1-0.725,1.875-0.764c0.869-0.041,1.307,0.234,1.307,0.83v8.977
			c0,0.502-0.471,0.764-1.398,0.764c-0.941,0-1.509-0.262-1.725-0.764c-0.895-1.994-2.006-3.516-3.338-4.561
			c-1.346-1.033-3.306-1.557-5.893-1.557c-1.274,0-2.294,0.27-3.051,0.805c-0.771,0.523-1.157,1.34-1.157,2.443
			c0,1.281,0.451,2.229,1.339,2.869c0.895,0.635,2.078,1.143,3.567,1.529c2.587,0.68,4.802,1.281,6.625,1.814
			c1.823,0.529,3.372,1.367,4.646,2.51C157.828,586.74,158.461,587.623,158.932,588.707z"/>
		<path fill="#000100" d="M234.264,589.916c0.98-0.027,1.463,0.373,1.463,1.182c0,2.543-0.686,4.965-2.064,7.26
			c-1.385,2.285-3.815,3.436-7.292,3.436c-1.869,0-3.646-0.561-5.318-1.684c-1.686-1.131-2.515-2.838-2.515-5.131v-20.313h-3.953
			c-0.385,0-0.686-0.17-0.921-0.51c-0.235-0.346-0.353-0.699-0.353-1.084c0-0.34,0.117-0.666,0.353-0.986s0.536-0.477,0.921-0.477
			c2.378,0,4.162-1.041,5.351-3.123c1.189-2.078,1.973-4.816,2.358-8.213c0.085-0.766,0.739-1.152,1.973-1.152
			c1.229,0,1.849,0.367,1.849,1.086v11.59h6.363c0.98,0,1.438,0.479,1.399,1.438c-0.046,0.955-0.503,1.432-1.399,1.432h-6.363
			v18.719c0,1.195,0.176,2.129,0.536,2.836c0.359,0.699,1.072,1.051,2.13,1.051c1.699,0,2.757-0.736,3.163-2.227
			c0.392-1.49,0.64-2.803,0.725-3.947C232.754,590.334,233.29,589.934,234.264,589.916z"/>
		<path fill="#000100" d="M312.523,601.088c-0.131,0-0.235-0.053-0.32-0.156s-0.131-0.289-0.131-0.543l0.065-2.992
			c-0.81,1.445-2.09,2.543-3.855,3.279c-1.757,0.746-3.534,1.117-5.318,1.117c-3.352,0-5.913-0.941-7.67-2.803
			c-1.764-1.869-2.64-4.645-2.64-8.342v-13.244c0-1.02-0.13-1.771-0.386-2.268c-0.254-0.477-1.398-0.725-3.437-0.725
			c-0.856,0-1.274-0.406-1.274-1.209c0-0.811,0.418-1.234,1.274-1.281l10.695-0.633c0.131,0,0.281,0.064,0.451,0.195
			c0.169,0.125,0.254,0.332,0.254,0.635v18.529c0,2.338,0.399,4.004,1.209,4.998c0.804,1.006,1.888,1.494,3.247,1.494
			c2.672,0,4.561-0.947,5.664-2.861c1.105-1.914,1.654-3.926,1.654-6.057v-10.818c0-1.105-0.157-1.881-0.477-2.326
			c-0.32-0.443-1.477-0.666-3.47-0.666c-0.804,0-1.208-0.406-1.208-1.209c0-0.811,0.405-1.234,1.208-1.281l10.637-0.633
			c0.339-0.039,0.575-0.006,0.699,0.104c0.131,0.098,0.196,0.295,0.196,0.594v22.861c0,1.191,0.104,2.008,0.313,2.451
			c0.209,0.451,1.34,0.674,3.378,0.674c0.804,0,1.208,0.41,1.208,1.207c0,0.811-0.405,1.256-1.208,1.334L312.523,601.088z"/>
		<path fill="#000100" d="M398.295,601.219c-0.176,0-0.3-0.053-0.386-0.156c-0.084-0.105-0.131-0.314-0.131-0.615v-2.861
			c-0.803,1.02-1.867,1.979-3.182,2.861c-1.313,0.902-2.73,1.346-4.266,1.346c-4.032,0-7.221-1.449-9.545-4.332
			c-2.34-2.881-3.503-6.617-3.503-11.205c0-4.029,1.163-7.637,3.503-10.832c2.324-3.176,5.494-4.77,9.479-4.77
			c1.535,0,2.973,0.334,4.331,0.98c1.359,0.666,2.424,1.463,3.182,2.398v-11.715c0-1.451-0.156-2.359-0.47-2.744
			c-0.32-0.387-1.353-0.576-3.09-0.576c-0.805,0-1.21-0.396-1.21-1.209c0-0.803,0.405-1.227,1.21-1.268l10.44-0.574
			c0.254-0.045,0.438-0.012,0.542,0.092s0.156,0.326,0.156,0.666v38.34c0,1.229,0.132,2.031,0.386,2.416
			c0.255,0.387,1.209,0.576,2.862,0.576c0.855,0,1.274,0.404,1.274,1.209c0,0.803-0.419,1.248-1.274,1.332L398.295,601.219z
			 M395.937,594.658c1.234-2.201,1.842-4.898,1.842-8.088c0-3.396-0.502-6.213-1.521-8.461c-1.02-2.254-2.653-3.377-4.908-3.377
			c-2.207,0-3.795,1.123-4.775,3.377c-0.973,2.248-1.463,5.064-1.463,8.461c0,3.482,0.496,6.252,1.496,8.311
			s2.581,3.092,4.742,3.092C393.179,597.973,394.703,596.867,395.937,594.658z"/>
		<path fill="#000100" d="M464.134,600.84c-0.418,0-0.738-0.156-0.953-0.451c-0.217-0.287-0.321-0.588-0.321-0.889
			s0.104-0.588,0.321-0.861c0.215-0.27,0.535-0.412,0.953-0.412c1.653,0,2.646-0.223,2.967-0.666c0.313-0.451,0.47-1.693,0.47-3.725
			v-16.367c0-1.359-0.157-2.201-0.47-2.516c-0.32-0.318-1.379-0.477-3.156-0.477c-0.804,0-1.209-0.418-1.209-1.242
			c0-0.828,0.405-1.266,1.209-1.313l10.252-0.633c0.261-0.039,0.483,0.051,0.699,0.254c0.215,0.209,0.319,0.443,0.319,0.705v21.393
			c0,2.037,0.138,3.305,0.411,3.82c0.281,0.512,1.262,0.766,2.961,0.766c0.385,0,0.686,0.143,0.895,0.412
			c0.215,0.273,0.32,0.561,0.32,0.861s-0.105,0.602-0.32,0.889c-0.209,0.295-0.51,0.451-0.895,0.451H464.134z M474.582,557.471
			c0.928,0.895,1.398,1.979,1.398,3.246c0,1.234-0.477,2.301-1.432,3.223c-0.96,0.906-2.051,1.365-3.286,1.365
			c-1.229,0-2.293-0.459-3.214-1.365c-0.908-0.922-1.366-1.988-1.366-3.223c0-1.268,0.452-2.352,1.341-3.246
			c0.894-0.889,1.972-1.342,3.239-1.342C472.543,556.129,473.647,556.582,474.582,557.471z"/>
		<path fill="#000100" d="M556.696,575.078c2.737,3.084,4.109,6.781,4.109,11.113c0,4.287-1.372,7.957-4.109,11.016
			c-2.745,3.059-6.233,4.586-10.474,4.586c-4.247,0-7.729-1.521-10.447-4.555c-2.718-3.037-4.07-6.715-4.07-11.047
			c0-4.371,1.353-8.082,4.07-11.141c2.718-3.064,6.2-4.586,10.447-4.586C550.462,570.465,553.951,572,556.696,575.078z
			 M551.312,594.568c1.02-2.359,1.528-5.143,1.528-8.377c0-3.396-0.509-6.246-1.528-8.564c-1.02-2.32-2.718-3.471-5.09-3.471
			c-2.339,0-4.025,1.164-5.07,3.502c-1.038,2.338-1.555,5.174-1.555,8.533c0,3.234,0.517,6.018,1.555,8.377
			c1.045,2.352,2.731,3.533,5.07,3.533C548.594,598.102,550.292,596.92,551.312,594.568z"/>
	</g>
	<g>
		<path fill="#000100" d="M456.967,126.45c-6.227-2.796-11.897-4.579-17.033-5.364c-5.13-0.77-9.493-1.313-13.067-1.627
			c-3.58-0.313-6.455-0.47-8.631-0.47c-1.869,0-2.803-0.47-2.803-1.404c0-1.863,3.273-4.273,9.801-7.226
			c6.533-2.954,14.308-8.011,23.331-15.172c8.709-6.833,15.009-13.994,18.896-21.462c3.887-7.462,5.834-16.334,5.834-26.598
			c0-13.368-5.057-24.495-15.158-33.36C448.015,4.9,433.787,0.463,415.433,0.463c-10.893,0-20.764,1.869-29.63,5.599
			s-16.411,8.167-22.626,13.303c-6.232,5.128-11.047,10.499-14.465,16.098c-3.438,5.599-5.143,10.421-5.143,14.466
			c0,4.358,1.248,6.526,3.737,6.526c3.11,0,5.286-1.469,6.534-4.43c1.241-2.954,3.736-6.769,7.467-11.428
			c5.9-7.473,11.898-13.074,17.969-16.804c6.063-3.73,12.982-5.599,20.764-5.599c9.33,0,17.176,3.581,23.559,10.735
			c6.371,7.161,9.572,16.327,9.572,27.525c0,13.694-4.514,25.906-13.537,36.64c-9.022,10.729-21.156,22.319-36.398,34.76
			c-12.447,9.963-22.084,17.19-28.931,21.697c-6.847,4.516-10.265,8.945-10.265,13.303c0,1.561,0.543,2.796,1.634,3.73
			c1.091,0.928,2.253,1.397,3.495,1.397c0.941,0,2.574-0.705,4.907-2.097c2.332-1.404,5.363-2.954,9.101-4.665
			c3.725-1.713,8.232-3.273,13.531-4.672c5.285-1.399,11.35-2.097,18.196-2.097c21.462,0,38.411,6.769,50.863,20.3
			c12.44,13.53,18.661,32.118,18.661,55.763c0,14.929-2.262,28.226-6.764,39.895c-4.514,11.663-10.107,21.463-16.797,29.401
			c-6.697,7.926-13.767,13.917-21.234,17.967c-7.468,4.031-14.158,6.063-20.064,6.063c-4.358,0-8.324-1.561-11.898-4.67
			c-3.579-3.111-6.998-6.463-10.264-10.029c-2.737-2.994-5.585-5.814-8.531-8.479c1.166-1.063,1.756-2.511,1.756-4.354
			c0-2.803-1.79-4.437-5.363-4.901c-3.581-0.463-7.54-2.247-11.898-5.369c-6.227-4.045-10.729-9.33-13.531-15.863
			c-2.796-6.533-5.913-15.23-9.33-26.129L260.045,21.925c-2.182-6.527-3.73-11.812-4.665-15.863C254.446,2.018,252.264,0,248.847,0
			c-2.496,0-4.129,1.012-4.9,3.037c-0.777,2.02-1.79,4.738-3.038,8.162L166.72,251.973c-2.496,8.409-4.829,15.484-6.998,21.234
			c-2.182,5.762-5.449,10.198-9.801,13.302c-2.495,1.868-5.057,2.96-7.703,3.261c-2.633,0.32-5.129,0.634-7.461,0.94
			c-2.333,0.314-4.273,0.856-5.834,1.633c-1.548,0.771-2.333,2.412-2.333,4.901c0,4.044,2.803,6.068,8.396,6.068
			c3.424,0,7.703-0.396,12.832-1.175c5.135-0.765,11.12-1.162,17.967-1.162c9.957,0,18.353,0.464,25.2,1.398
			c6.834,0.939,11.977,1.398,15.399,1.398c5.286,0,7.933-1.87,7.933-5.6c0-3.416-1.562-5.749-4.666-6.997
			c-3.11-1.234-7.781-2.325-14.001-3.267c-4.358-0.62-7.461-1.705-9.33-3.268c-1.869-1.548-2.803-4.657-2.803-9.336
			c0-5.6,2.333-17.562,7.004-35.928l11.192-41.527c0.307-1.235,1.013-2.247,2.104-3.032c1.091-0.777,2.098-1.17,3.032-1.17h57.861
			c4.044,0,6.377,1.248,6.998,3.737l18.203,59.724c2.803,9.964,4.201,16.962,4.201,20.999c0,4.358-1.248,7.317-3.73,8.866
			c-2.502,1.563-7.631,2.332-15.4,2.332c-6.227,0-9.337,2.496-9.337,7.469c0,3.736,2.64,5.599,7.932,5.599
			c3.11,0,8.637-0.392,16.569-1.164c7.932-0.776,18.431-1.169,31.498-1.169c7.59,0,14.186,0.316,19.821,0.933
			c-2.008,3.189-3.023,7.537-3.023,13.068c0,18.348,13.996,27.527,41.998,27.527c13.368,0,27.689-3.959,42.933-11.893
			c15.236-7.943,29.695-19.834,43.396-35.699c23.332-27.068,34.994-56.307,34.994-87.726c0-19.909-3.809-36.634-11.427-50.166
			C482.703,142.556,471.583,132.683,456.967,126.45z M261.914,174.753c-0.934,0.784-1.869,1.162-2.803,1.162h-46.663
			c-2.175,0-3.267-0.927-3.267-2.803c0-0.3,0-0.765,0-1.392c0-0.94,0.157-2.019,0.47-3.266l21.933-82.598
			c0.615-2.489,1.549-3.73,2.797-3.73c0.934,0,1.869,1.397,2.803,4.195l25.2,81.192c0.615,2.501,0.928,4.051,0.928,4.678
			C263.312,173.113,262.841,173.982,261.914,174.753z"/>
		<path fill="#000100" d="M552.384,264.577c-4.195-4.666-8.945-7.005-14.231-7.005c-5.292,0-10.028,2.339-14.229,7.005
			c-4.201,4.665-6.3,10.578-6.3,17.732c0,7.16,2.099,13.066,6.3,17.731c4.201,4.665,8.938,7.004,14.229,7.004
			c5.286,0,10.036-2.34,14.231-7.004c4.2-4.665,6.305-10.571,6.305-17.731C558.689,275.155,556.584,269.242,552.384,264.577z"/>
	</g>
</g>
</svg>
